<svg xmlns="http://www.w3.org/2000/svg" viewBox="0 0 168.692 168.692">
  <defs>
    <style>
      .cls-1 {
        fill: #f5b8a3;
      }

      .cls-2 {
        fill: #fff;
      }
    </style>
  </defs>
  <g id="Group_14" data-name="Group 14" transform="matrix(0.875, 0.485, -0.485, 0.875, 60.16, 0)">
    <g id="Group_1" data-name="Group 1" transform="translate(0 0)">
      <path id="Path_1" data-name="Path 1" class="cls-1" d="M62.045,0A62.045,62.045,0,1,1,0,62.045C0,44.207,7.6,29.04,16.884,33.5a18.745,18.745,0,0,1,7.6,10.363s3.659,11.375,11.259-5.849c0,0,4.406-8.554-5.907-5.02,0,0-4.522,1.427-9.948-3.759,0,0-6.538-5.161,2.307-14.686a42.288,42.288,0,0,1,7.169-5.219C36.5,5.111,48.355.017,62.045,0Z"/>
    </g>
    <g id="Group_2" data-name="Group 2" transform="translate(51.608 88.803)">
      <path id="Path_2" data-name="Path 2" class="cls-2" d="M0,4.571V4.065C0,3.4.124,2.4,2.207,1.966l1.054-.216c.614-.116.664-.232.664-.373,0-.174-.141-.34-1.128-.34-1.128,0-1.228.415-1.245.63H.083v-.05C.083,1.1.3,0,2.622,0h.241C4.978,0,5.4.672,5.4,1.385v.008c0,.68-.257,1.1-1.734,1.344l-1.236.208c-1.062.191-1.186.431-1.186.564H4.09V2.929H5.476V4.571Z" transform="translate(0 0.008)"/>
      <path id="Path_3" data-name="Path 3" class="cls-2" d="M6.322,2.406c0,.788-.365,2.248-3.028,2.248H3.029C.373,4.655,0,3.2,0,2.406V2.224C0,1.427.373,0,3.029,0h.266C5.957,0,6.322,1.427,6.322,2.224ZM4.846,2.273c0-.506-.315-1.17-1.693-1.17-1.4,0-1.693.664-1.693,1.17v.075c0,.506.324,1.211,1.693,1.211s1.693-.689,1.693-1.2Z" transform="translate(5.866 0)"/>
      <path id="Path_4" data-name="Path 4" class="cls-2" d="M0,1.709V.863A1.4,1.4,0,0,0,1.344,0h1.1V4.5H1.045V1.709Z" transform="translate(12.504 0.083)"/>
      <path id="Path_5" data-name="Path 5" class="cls-2" d="M5.377,0V.946c-.191.224-.655.705-1.12,1.311a3.043,3.043,0,0,0-.73,2.182V4.5H1.917V3.933c0-.714.257-1.145,1.17-2.008.655-.631.855-.8.879-.9H1.427V1.95H0V.008H5.377Z" transform="translate(15.557 0.083)"/>
    </g>
    <g id="Group_7" data-name="Group 7" transform="translate(38.078 35.792)">
      <g id="Group_4" data-name="Group 4" transform="translate(0.205 0.188)">
        <g id="Group_3" data-name="Group 3">
          <path id="Path_6" data-name="Path 6" class="cls-2" d="M49.068,18.266a14.377,14.377,0,0,0-3.941-9.542,29.95,29.95,0,0,0-9.1-6.339A24.837,24.837,0,0,0,27.339.22a45.769,45.769,0,0,0-9.533.058,20.59,20.59,0,0,0-5.982,1.751A9.394,9.394,0,0,0,7.509,5.455a16.565,16.565,0,0,0-5.011,7c0,.008,0,.008-.008.017s-.042.033-.058.05a.344.344,0,0,0-.108.357A33.286,33.286,0,0,0,.157,22.008c-.622,6.239.539,13.1,4.588,18.063,4.854,5.941,13.433,6.961,20.635,6.2a.415.415,0,0,0,.266-.025l.257-.025c6.422-.772,13.615-2.937,17.855-8.139A15.945,15.945,0,0,0,46.082,34.1a31.543,31.543,0,0,0,1.377-5.086C48.272,25.485,49.176,21.917,49.068,18.266Zm-1.925-5.31a.316.316,0,0,0-.116.257A12.722,12.722,0,0,1,45.335,18.6c-.838,1.709-1.85,3.311-2.846,4.928a30.236,30.236,0,0,1-3.941,5.061,14.962,14.962,0,0,1-5.078,3.75.008.008,0,0,0-.008.008c-.365-.257-.73-.523-1.087-.8a24.46,24.46,0,0,1-4.729-4.978,23.859,23.859,0,0,0,9.077-8.538A26.2,26.2,0,0,0,41,6.152,18.117,18.117,0,0,1,47.143,12.956ZM40.058,5.489c.091.058.174.116.265.174a.353.353,0,0,0-.017.091,25.368,25.368,0,0,1-4.066,11.657,22.933,22.933,0,0,1-9,8.529c-.008,0-.008.008-.017.008-.191-.274-.373-.548-.556-.83a18.617,18.617,0,0,1-1.941-3.742c-.349-.962-.6-1.991.232-2.73,1.012-.9,2.174-1.618,3.186-2.514q.373-.336.722-.7a.44.44,0,0,0,.2-.207,13.948,13.948,0,0,0,1.908-2.738c.647-1.211,1.319-2.39,1.917-3.593a.345.345,0,0,0,.149-.3,18.532,18.532,0,0,0,1.917-5.866A30.944,30.944,0,0,1,40.058,5.489Zm-28.8-2.356a19.505,19.505,0,0,1,4.563-1.751C19.846.361,24.269.627,28.359,1.05A23.506,23.506,0,0,1,34.25,2.469,16.511,16.511,0,0,1,32.574,8a.3.3,0,0,0-.033.075c-6.53-5.584-15.4-3.136-23.265-3.618A11.821,11.821,0,0,1,11.259,3.132ZM7.542,6.36a.365.365,0,0,0,.423-.216c.033-.066.058-.124.091-.191l.282-.207a.289.289,0,0,0,.1-.407L8.6,5.124a.41.41,0,0,0,.108.025C16.5,5.754,25.737,3,32.2,8.733c-.755,1.493-1.576,2.987-2.448,4.4a10.416,10.416,0,0,1-1.07,1.419c-3.991-3.252-9.284-3.31-14.2-3.576a57.61,57.61,0,0,0-6.663-.066,11.892,11.892,0,0,0-4.215.846A15.483,15.483,0,0,1,7.542,6.36ZM1,21.145A32.4,32.4,0,0,1,3.1,12.923c1.344-1.07,3.41-1.2,5.045-1.311a53.951,53.951,0,0,1,6.447.1c4.7.257,9.749.307,13.6,3.385a16.163,16.163,0,0,1-1.46,1.269,12.755,12.755,0,0,0-2.813,2.34c-.008.008-.008.017-.017.025C16.42,17.81,5.916,15.96.821,23.045.854,22.406.912,21.767,1,21.145Zm4.439,18.61C1.809,35.532.589,29.7.763,24.174a.326.326,0,0,0,.282-.158,11.274,11.274,0,0,1,7.077-4.9c.307,6.007.921,12.595,4.356,17.731,2.846,4.24,7.55,6.339,11.84,8.8C17.507,46.252,9.973,45.049,5.434,39.755Zm22.609,5.4c-.813.149-1.651.282-2.506.382-4.265-2.547-9.094-4.514-12.139-8.621A22.451,22.451,0,0,1,9.948,28.53a55.181,55.181,0,0,1-1.1-9.483c0-.025-.008-.05-.008-.075A26.848,26.848,0,0,1,15.7,18.59a.363.363,0,0,0-.033.324c1.751,5.227,2.149,10.985,5.9,15.325,3.725,4.314,9.484,5.742,14.146,8.737A39.134,39.134,0,0,1,28.044,45.157ZM36.49,42.61c-4.7-3.145-10.521-4.53-14.387-8.853-3.725-4.173-4.09-10.039-5.783-15.134,2.564.174,5.094.539,7.335.821a4.922,4.922,0,0,0,.315,2,17.274,17.274,0,0,0,1.85,3.717,27.69,27.69,0,0,0,5.045,6.073A26.541,26.541,0,0,0,36.6,35.051,28.757,28.757,0,0,0,43.219,37.6,18.351,18.351,0,0,1,36.49,42.61ZM47.625,24.962c-.365,1.8-.821,3.584-1.2,5.376a19.1,19.1,0,0,1-1.717,5,15.41,15.41,0,0,1-1.012,1.634.641.641,0,0,0-.133-.058,27.35,27.35,0,0,1-6.065-2.249,29.214,29.214,0,0,1-3.3-1.85,16.393,16.393,0,0,0,4.837-3.684A30.8,30.8,0,0,0,43.1,23.941c1.037-1.668,2.058-3.335,2.929-5.094a15.7,15.7,0,0,0,1.659-4.555C48.828,17.719,48.322,21.494,47.625,24.962Z"/>
        </g>
      </g>
      <g id="Group_6" data-name="Group 6">
        <g id="Group_5" data-name="Group 5">
          <path id="Path_7" data-name="Path 7" class="cls-2" d="M21.512,46.9a30,30,0,0,1-7.169-.813A17.292,17.292,0,0,1,4.793,40.4,20.933,20.933,0,0,1,.7,31.763a29.973,29.973,0,0,1-.548-9.575,33.423,33.423,0,0,1,2.157-9.127.558.558,0,0,1,.182-.49.115.115,0,0,1,.033-.025A16.511,16.511,0,0,1,7.556,5.519a9.385,9.385,0,0,1,4.381-3.476A20.7,20.7,0,0,1,17.986.276,45.911,45.911,0,0,1,27.56.218,24.8,24.8,0,0,1,36.322,2.4,30.178,30.178,0,0,1,45.49,8.788a14.583,14.583,0,0,1,4,9.674h0a39.613,39.613,0,0,1-1.427,9.981c-.066.274-.124.548-.191.821-.075.324-.141.639-.216.962a25.643,25.643,0,0,1-1.17,4.157,15.918,15.918,0,0,1-2.356,4.032c-4.522,5.551-12.28,7.534-17.988,8.214-.041.008-.083.008-.124.017s-.066.008-.091.008a.513.513,0,0,1-.332.033C24.2,46.822,22.839,46.9,21.512,46.9ZM22.607.4a35.6,35.6,0,0,0-4.563.274A20.362,20.362,0,0,0,12.12,2.408,8.876,8.876,0,0,0,7.9,5.752l-.025.033-.033.025A16.142,16.142,0,0,0,2.9,12.729l-.025.058-.033.025c-.008.008-.025.017-.033.033s-.017.017-.025.017a.141.141,0,0,0-.05.149l.017.066-.025.066A32.636,32.636,0,0,0,.578,22.213a29.626,29.626,0,0,0,.539,9.442,20.544,20.544,0,0,0,4.008,8.471,16.864,16.864,0,0,0,9.326,5.542,32.862,32.862,0,0,0,11.126.581l.042-.008.041.008a.123.123,0,0,0,.108-.017l.033-.017.042-.008c.042-.008.091-.008.133-.017s.083-.008.124-.017c5.634-.672,13.284-2.622,17.723-8.065a15.367,15.367,0,0,0,2.29-3.933,24.394,24.394,0,0,0,1.153-4.09c.075-.324.141-.647.216-.962.066-.274.124-.548.191-.821a39.253,39.253,0,0,0,1.419-9.873,14.154,14.154,0,0,0-3.883-9.4,29.748,29.748,0,0,0-9.044-6.3A24.362,24.362,0,0,0,27.544.591C25.7.475,24.092.4,22.607.4ZM21.47,46.192c-4.953,0-11.666-1.079-15.988-6.115h0a18.868,18.868,0,0,1-3.8-7.384,28.121,28.121,0,0,1-.921-8.339l.008-.207H.977a.112.112,0,0,0,.1-.066A11.406,11.406,0,0,1,8.27,19.1l.249-.066.017.249c.3,5.849.9,12.52,4.323,17.623,2.365,3.518,6.09,5.584,9.691,7.575.68.382,1.394.772,2.074,1.162l.573.332-.655.058A28.333,28.333,0,0,1,21.47,46.192ZM1.167,24.536a27.654,27.654,0,0,0,.913,8.056A18.572,18.572,0,0,0,5.8,39.819h0c4.945,5.766,13.151,6.215,18.029,5.883-.5-.282-1-.556-1.485-.83-3.651-2.016-7.418-4.107-9.84-7.708C9.066,32.045,8.427,25.432,8.12,19.583a10.956,10.956,0,0,0-6.7,4.738A.522.522,0,0,1,1.167,24.536ZM25.693,45.943l-.058-.033c-.937-.564-1.933-1.1-2.887-1.634-3.4-1.875-6.92-3.808-9.309-7.044a22.454,22.454,0,0,1-3.493-8.463,56.4,56.4,0,0,1-1.112-9.525.075.075,0,0,0-.008-.042l-.05-.207.207-.041a27.1,27.1,0,0,1,6.911-.39l.348.017h0l.29.017c2.033.141,4,.39,5.9.639.49.066.979.124,1.444.182l.207.025-.025.207a5,5,0,0,0,.307,1.908,17.455,17.455,0,0,0,1.825,3.676,27.327,27.327,0,0,0,5,6.032,26.182,26.182,0,0,0,5.692,3.784,28.384,28.384,0,0,0,6.571,2.531l.324.075-.207.257a18.447,18.447,0,0,1-6.8,5.078l-.1.042-.1-.066a45.618,45.618,0,0,0-5.526-3c-3.169-1.543-6.447-3.136-8.9-5.883-2.688-3.012-3.659-6.92-4.588-10.695-.373-1.5-.755-3.053-1.236-4.514l-.091-.274-.166.282a.19.19,0,0,0-.017.149c.506,1.5.9,3.07,1.286,4.58.946,3.742,1.925,7.608,4.58,10.678,2.39,2.771,5.7,4.373,8.9,5.916a50.426,50.426,0,0,1,5.2,2.771l.332.216-.365.149a37.416,37.416,0,0,1-7.7,2.207h0c-.83.158-1.676.282-2.522.382ZM9.249,19.317a55.857,55.857,0,0,0,1.1,9.351,22.07,22.07,0,0,0,3.418,8.314c2.34,3.161,5.816,5.078,9.177,6.928.938.514,1.908,1.054,2.838,1.6.813-.1,1.626-.224,2.423-.373h0A37.707,37.707,0,0,0,35.442,43.1a53.39,53.39,0,0,0-4.821-2.539C27.386,39,24.034,37.38,21.586,34.542c-2.713-3.136-3.7-7.052-4.663-10.844-.382-1.51-.78-3.062-1.278-4.547a.559.559,0,0,1-.033-.2A27.018,27.018,0,0,0,9.249,19.317Zm7.567-.282c.448,1.386.8,2.838,1.153,4.248.921,3.734,1.875,7.583,4.5,10.521,2.4,2.688,5.642,4.265,8.778,5.791a47.922,47.922,0,0,1,5.476,2.97,18.2,18.2,0,0,0,6.331-4.655A29.038,29.038,0,0,1,36.7,35.422a26.954,26.954,0,0,1-5.775-3.841,27.907,27.907,0,0,1-5.078-6.115A17.33,17.33,0,0,1,23.984,21.7a5.605,5.605,0,0,1-.34-1.883c-.407-.05-.821-.108-1.253-.158C20.582,19.409,18.732,19.168,16.816,19.035ZM43.939,37.446l-.166-.108a.094.094,0,0,0-.066-.025,27.394,27.394,0,0,1-6.115-2.265,29.174,29.174,0,0,1-3.327-1.859l-.315-.207.349-.158a16.261,16.261,0,0,0,4.771-3.642,31.028,31.028,0,0,0,4.041-5.161c.987-1.585,2.025-3.277,2.921-5.078a15.507,15.507,0,0,0,1.643-4.5l.124-.863.274.821c1.17,3.485.664,7.243-.05,10.786h0c-.207,1.045-.456,2.091-.689,3.111-.174.747-.348,1.51-.514,2.273a19.1,19.1,0,0,1-1.742,5.053,14.9,14.9,0,0,1-1.029,1.659Zm-9.127-4.406a29.988,29.988,0,0,0,2.97,1.635A26.968,26.968,0,0,0,43.8,36.907h.017a13.536,13.536,0,0,0,.9-1.477,18.7,18.7,0,0,0,1.7-4.945c.166-.763.34-1.535.514-2.273.232-1.012.481-2.066.689-3.095h0c.647-3.211,1.12-6.6.3-9.774A18.479,18.479,0,0,1,46.4,19.127c-.913,1.817-1.95,3.526-2.945,5.111a31.092,31.092,0,0,1-4.1,5.227A17.207,17.207,0,0,1,34.812,33.041Zm-1.17-.274-.1-.075c-.4-.274-.755-.539-1.1-.8a24.284,24.284,0,0,1-4.771-5.02l-.141-.2.216-.108A23.408,23.408,0,0,0,36.745,18.1a25.866,25.866,0,0,0,4.248-11.79l.033-.365.3.216a18.244,18.244,0,0,1,6.206,6.895l.066.149-.133.1c-.008.008-.033.025-.033.091a12.994,12.994,0,0,1-1.718,5.476c-.738,1.5-1.626,2.954-2.489,4.348-.124.2-.241.4-.365.6a30.2,30.2,0,0,1-3.974,5.094A15.207,15.207,0,0,1,33.75,32.7Zm-5.484-5.941A23.643,23.643,0,0,0,32.7,31.564c.307.241.631.473.979.722A14.968,14.968,0,0,0,38.6,28.618a30.084,30.084,0,0,0,3.916-5.02c.124-.2.241-.4.365-.6.855-1.386,1.734-2.829,2.473-4.314a12.613,12.613,0,0,0,1.676-5.294.531.531,0,0,1,.075-.282,17.532,17.532,0,0,0-5.725-6.405,26.436,26.436,0,0,1-4.281,11.616A23.853,23.853,0,0,1,28.158,26.826Zm-.8-.407-.108-.158c-.191-.282-.382-.564-.556-.83a18.691,18.691,0,0,1-1.966-3.783c-.382-1.054-.614-2.149.29-2.954a20.3,20.3,0,0,1,1.651-1.3c.514-.382,1.054-.78,1.543-1.211.232-.207.465-.431.705-.689l.025-.033.041-.017a.216.216,0,0,0,.091-.1l.017-.033.025-.025A13.551,13.551,0,0,0,31,12.588c.191-.357.382-.714.581-1.062C32.032,10.705,32.5,9.85,32.92,9l.025-.042.041-.033a.156.156,0,0,0,.066-.108l-.025-.058.025-.058a18.2,18.2,0,0,0,1.9-5.8l.033-.266.249.1a30.609,30.609,0,0,1,5.136,2.755h0c.091.058.174.116.265.183l.133.091-.05.149a.09.09,0,0,0-.008.042,25.69,25.69,0,0,1-4.09,11.757,23.428,23.428,0,0,1-9.077,8.6c-.008,0-.008.008-.017.008Zm.174-.1Zm1.659-10.512c-.249.257-.481.481-.714.689-.506.44-1.045.846-1.568,1.236-.548.407-1.112.821-1.618,1.278-.68.614-.564,1.444-.174,2.506a18.754,18.754,0,0,0,1.925,3.7c.141.216.29.448.448.672A23.021,23.021,0,0,0,36.272,17.5,25.334,25.334,0,0,0,40.3,5.951l-.149-.1a30.048,30.048,0,0,0-4.812-2.614,18.7,18.7,0,0,1-1.875,5.609.518.518,0,0,1-.191.382c-.423.838-.879,1.676-1.328,2.5-.191.348-.382.705-.572,1.062a13.868,13.868,0,0,1-1.917,2.755A.811.811,0,0,1,29.195,15.808ZM.769,23.947l.05-.722c.042-.647.1-1.286.183-1.917a32.494,32.494,0,0,1,2.124-8.272l.017-.05.041-.033c1.394-1.112,3.468-1.245,5.136-1.352h.017a55.054,55.054,0,0,1,6.414.091h.058l.954.05c4.48.232,9.118.465,12.761,3.377l.183.149-.166.166a16.369,16.369,0,0,1-1.485,1.286c-.249.191-.514.373-.788.573a7.7,7.7,0,0,0-1.975,1.726.029.029,0,0,1-.008.017l-.075.108-.124-.017c-.465-.058-.946-.116-1.435-.183a51.508,51.508,0,0,0-11.732-.589c-4.456.473-7.633,2.107-9.716,5.011ZM1.2,21.334l.207.025c-.05.39-.091.8-.124,1.195,2.157-2.655,5.294-4.165,9.583-4.621a52.286,52.286,0,0,1,11.832.6c.448.058.879.116,1.311.166a8.4,8.4,0,0,1,2.016-1.751c.274-.191.531-.373.78-.556.456-.348.888-.722,1.278-1.087-3.51-2.7-8-2.921-12.338-3.145l-.954-.05h-.058a52.477,52.477,0,0,0-6.364-.091H8.353c-1.593.1-3.576.232-4.862,1.228a32.118,32.118,0,0,0-2.074,8.115Zm27.712-6.3-.149-.124c-3.684-3.012-8.488-3.261-13.126-3.493l-.954-.05A56.51,56.51,0,0,0,8.046,11.3a11.529,11.529,0,0,0-4.132.83l-.523.241.241-.523A15.544,15.544,0,0,1,7.622,6.391L7.7,6.324l.1.017A.171.171,0,0,0,8,6.25l.1-.2.025-.041.1-.075c.075-.058.149-.108.232-.166.05-.033.075-.066.033-.133l-.066-.116L8.5,5.412q.075-.1.174-.224l.091-.116.141.05a.1.1,0,0,0,.05.008A60.565,60.565,0,0,0,15.787,5.1c5.941-.249,12.08-.506,16.777,3.667l.116.108-.075.141c-.813,1.61-1.643,3.095-2.456,4.414a10.516,10.516,0,0,1-1.1,1.444ZM10.477,10.813c1.477,0,2.921.066,4.231.141l.954.05c4.646.241,9.442.481,13.209,3.46a9.931,9.931,0,0,0,.921-1.236c.788-1.269,1.585-2.7,2.365-4.24C27.6,5.038,21.595,5.287,15.8,5.536a57.7,57.7,0,0,1-6.878.025H8.909l-.017.017a.507.507,0,0,1-.216.548c-.075.05-.149.108-.216.158L8.436,6.3c-.025.05-.05.091-.066.133a.568.568,0,0,1-.548.34,14.8,14.8,0,0,0-3.576,4.771A13.483,13.483,0,0,1,8.021,10.9C8.834,10.838,9.655,10.813,10.477,10.813ZM32.821,8.6l-.207-.174c-4.729-4.041-10.8-3.817-16.677-3.6-2.141.083-4.356.158-6.463.033l-.506-.033.382-.332A11.417,11.417,0,0,1,11.364,3.13h0a19.928,19.928,0,0,1,4.6-1.767C20.01.334,24.416.591,28.581,1.022A23.733,23.733,0,0,1,34.53,2.458l.149.058-.017.158a16.667,16.667,0,0,1-1.693,5.6.294.294,0,0,0-.033.075ZM19.968,4.316c4.538,0,8.994.564,12.711,3.626A16.231,16.231,0,0,0,34.231,2.8a23.456,23.456,0,0,0-5.692-1.352c-4.124-.431-8.48-.689-12.462.332A19.371,19.371,0,0,0,11.564,3.5h0a13.541,13.541,0,0,0-1.535.971c1.925.083,3.933.008,5.883-.058C17.264,4.366,18.624,4.316,19.968,4.316Z"/>
        </g>
      </g>
    </g>
    <g id="Group_8" data-name="Group 8" transform="translate(7.09 7.22)">
      <path id="Path_8" data-name="Path 8" class="cls-2" d="M10.508,14.2c-6.571,2.24-8.3-.324-8.853-1.975l-.066-.183,4.09-1.4c.307.738,1.17,1.817,4.4.714l.232-.083c3.3-1.128,3.443-1.908,3.219-2.589-.249-.722-.788-1.045-3.717-.141l-2.174.689C2.908,10.7.934,9.6.27,7.642L.22,7.492C-.419,5.626.029,3.286,5.738,1.336L6.9.938c5.932-2.024,7.982-.415,8.629,1.469l.058.166L11.512,3.966c-.249-.44-.846-1.386-4.132-.265l-.266.091c-3.028,1.037-3.07,1.651-2.879,2.19s.689.913,3.269.091l2.116-.689c4.746-1.527,7.036-1.029,7.89,1.46l.083.232c.705,2.074.39,4.547-5.908,6.7Z" transform="translate(30.458 1.84)"/>
      <path id="Path_9" data-name="Path 9" class="cls-2" d="M10.747.164C19.035.944,19.624,5.2,19.4,7.557l-.05.531c-.216,2.323-1.576,6.5-9.882,5.725l-.763-.075C.359,12.958-.181,8.594.035,6.279l.05-.531C.309,3.392,1.636-.682,9.983.1Zm4.315,7.111c.141-1.51-.548-3.535-5.011-3.958C5.511,2.894,4.532,4.769,4.391,6.271l-.017.216c-.141,1.51.531,3.659,4.995,4.082,4.431.415,5.526-1.518,5.667-3.045Z" transform="translate(49.76 0)"/>
      <path id="Path_10" data-name="Path 10" class="cls-2" d="M5.128,13.733C-1.451,9.784-.265,5.494.947,3.478l.265-.44C2.449.981,5.469-2.048,12.181,1.984l.622.373c6.58,3.949,5.717,7.708,4.92,9.035l-.1.166L13.857,9.294c.091-.357.589-2.224-3.012-4.381-3.4-2.041-5.094-.979-5.949.44l-.108.183c-.8,1.344-.971,3.651,2.348,5.642,3.676,2.207,5.094.672,5.343.465l3.767,2.265-.1.166c-.863,1.435-3.891,3.933-10.38.041Z" transform="translate(70.727 5.556)"/>
      <path id="Path_11" data-name="Path 11" class="cls-2" d="M2.242,12.519C-2.064,6.172.815,2.778,2.757,1.459l.423-.29c1.991-1.352,6-2.821,10.4,3.651l.407.606c4.306,6.347,1.941,9.392.664,10.263l-.166.108-2.472-3.634c.232-.29,1.469-1.767-.9-5.244C8.88,3.633,6.9,3.882,5.528,4.811l-.174.116c-1.294.879-2.415,2.912-.241,6.107,2.406,3.551,4.339,2.755,4.655,2.672L12.24,17.34l-.166.108c-1.385.938-5.186,1.933-9.434-4.331Z" transform="translate(86.648 18.883)"/>
      <path id="Path_12" data-name="Path 12" class="cls-2" d="M15.739,13.665l-2.945.6L10.836,4.6l-1.917.39,1.917,9.434-2.962.606L5.957,5.592l-2.124.431,2,9.84-3.02.614L0,2.63,12.977,0Z" transform="translate(94.217 37.161)"/>
      <path id="Path_13" data-name="Path 13" class="cls-2" d="M2.257,4.082,3,0,16.03,2.381l-1.917,10.5c-.8,4.339-2.539,5.376-4.414,5.036l-.207-.042a3.1,3.1,0,0,1-2.415-2.937,3.111,3.111,0,0,1-3.443,1.925l-1.908-.348a3.127,3.127,0,0,0-1.634-.05L0,16.453.755,12.3a1.258,1.258,0,0,1,.855-.042l1.5.274c1.593.29,2.423-.282,2.788-2.3L6.87,4.92ZM9.766,5.459,8.637,11.641c-.216,1.17.257,1.751.979,1.883h.017c.68.124,1.344-.224,1.56-1.419l1.128-6.181Z" transform="translate(94.192 54.36)"/>
      <path id="Path_14" data-name="Path 14" class="cls-2" d="M5.9,6.015,2.532,3.161,5.212,0,15.318,8.554,8.9,16.129c-3.087,3.642-5.435,3.493-7.277,1.933l-.133-.116c-1.809-1.527-2.381-3.908.68-7.517ZM8.174,7.932,4.482,12.288c-.838,1-.88,1.776-.183,2.365l.042.033c.689.589,1.452.456,2.315-.556l3.692-4.356Z" transform="translate(86.359 75.742)"/>
      <path id="Path_15" data-name="Path 15" class="cls-2" d="M6.165,8.687l7-3.925-.141-2.7L16.7,0l.639,14.827-4.688,2.63L0,9.367,3.9,7.185Zm7.459,4.937-.282-5.534L8.961,10.545Z" transform="translate(66.887 86.304)"/>
      <path id="Path_16" data-name="Path 16" class="cls-2" d="M0,.846,4.057,0l2.7,12.968L2.7,13.814Z" transform="translate(61.394 94.983)"/>
      <path id="Path_17" data-name="Path 17" class="cls-2" d="M12.479,14.495,4.953,5.318,4.074,13.6,0,13.167,1.4,0,5.476.431l8.007,9.674.929-8.729,4.074.431-1.4,13.167Z" transform="translate(40.602 95.149)"/>
      <path id="Path_18" data-name="Path 18" class="cls-2" d="M10.247,10.919l5.094,2.547-1.4,2.8L0,9.293l1.4-2.8L6.513,9.044,11.043,0l3.742,1.875Z" transform="translate(23.535 90.967)"/>
      <path id="Path_19" data-name="Path 19" class="cls-2" d="M0,9.525,2.116,7.393,9.11,14.337l1.377-1.386L3.659,6.165,5.791,4.016,12.62,10.8,14.146,9.26,7.028,2.182,9.2,0,19.224,9.956,9.907,19.365Z" transform="translate(11.388 79.119)"/>
      <path id="Path_20" data-name="Path 20" class="cls-2" d="M15.6,11.657,17.16,15.5,4.888,20.485l-4.016-9.9C-.787,6.5.126,4.688,1.893,3.966l.2-.083A3.087,3.087,0,0,1,5.7,5.069,3.1,3.1,0,0,1,7.577,1.6l1.8-.73a3.2,3.2,0,0,0,1.41-.838L10.871,0l1.585,3.908c-.1.174-.257.315-.705.5l-1.419.572c-1.5.606-1.892,1.535-1.12,3.435l2.033,5.011ZM8.531,14.528,6.166,8.7C5.718,7.6,5.013,7.368,4.332,7.642l-.017.008c-.647.257-1.012.913-.556,2.033l2.365,5.825Z" transform="translate(2.426 62.425)"/>
      <path id="Path_21" data-name="Path 21" class="cls-2" d="M13.728,9.138c-.216,6.936-3.228,7.642-4.978,7.592l-.2-.008L8.683,12.4c.8-.025,2.116-.448,2.224-3.866l.008-.249c.108-3.485-.572-3.9-1.286-3.925-.763-.025-1.261.373-1.444,3.427l-.124,2.273c-.3,4.937-2.016,6.4-4.082,6.339l-.158-.008c-1.975-.058-4-1.3-3.808-7.335L.054,7.827C.253,1.562,2.485.21,4.476.276l.174.008L4.518,4.591c-.5.075-1.593.307-1.7,3.775l-.008.282c-.1,3.2.465,3.452,1.029,3.468s1.1-.324,1.236-3.02l.108-2.224C5.43,1.894,6.7-.08,9.33,0l.249.008c2.19.066,4.4,1.245,4.182,7.9Z" transform="translate(0 44.999)"/>
    </g>
  </g>
</svg>
