<svg xmlns="http://www.w3.org/2000/svg" viewBox="0 0 110.686 110.686">
  <defs>
    <style>
      .cls-1 {
        fill: #005076;
      }

      .cls-2 {
        fill: #fff;
      }
    </style>
  </defs>
  <g id="Group_1" data-name="Group 1" transform="translate(0 7.234) rotate(-4)">
    <g id="Group_1-2" data-name="Group 1" transform="translate(0 0)">
      <path id="Path_1" data-name="Path 1" class="cls-1" d="M51.852,0A51.852,51.852,0,1,1,0,51.852C0,36.944,6.352,24.269,14.111,28a15.666,15.666,0,0,1,6.352,8.661s3.058,9.506,9.409-4.888c0,0,3.682-7.149-4.937-4.2,0,0-3.779,1.193-8.314-3.141,0,0-5.464-4.313,1.928-12.273A35.341,35.341,0,0,1,24.539,7.8,55.289,55.289,0,0,1,51.852,0Z"/>
    </g>
    <g id="Group_2" data-name="Group 2" transform="translate(43.129 74.214)">
      <path id="Path_2" data-name="Path 2" class="cls-2" d="M0,3.82V3.4C0,2.843.1,2,1.845,1.643l.881-.18c.513-.1.555-.194.555-.312,0-.146-.118-.284-.943-.284-.943,0-1.026.347-1.04.527H.069V1.352C.069.922.25,0,2.191,0h.2C4.16,0,4.514.562,4.514,1.158v.007c0,.569-.215.922-1.449,1.123l-1.033.173c-.888.159-.992.361-.992.471H3.419V2.448H4.576V3.82Z" transform="translate(0 0.007)"/>
      <path id="Path_3" data-name="Path 3" class="cls-2" d="M5.284,2.011c0,.659-.305,1.879-2.531,1.879H2.531C.312,3.89,0,2.677,0,2.011V1.858C0,1.193.312,0,2.531,0h.222C4.979,0,5.284,1.193,5.284,1.858ZM4.049,1.9c0-.423-.264-.977-1.415-.977-1.172,0-1.415.555-1.415.977v.063c0,.423.27,1.012,1.415,1.012S4.049,2.4,4.049,1.969Z" transform="translate(4.902 0)"/>
      <path id="Path_4" data-name="Path 4" class="cls-2" d="M0,1.428V.721A1.167,1.167,0,0,0,1.123,0h.915V3.758H.874V1.428Z" transform="translate(10.45 0.069)"/>
      <path id="Path_5" data-name="Path 5" class="cls-2" d="M4.493,0V.791c-.16.187-.548.589-.936,1.1a2.543,2.543,0,0,0-.61,1.824v.049H1.6V3.287c0-.6.215-.957.978-1.678.548-.527.714-.673.735-.749H1.193v.77H0V.007H4.493Z" transform="translate(13.001 0.069)"/>
    </g>
    <g id="Group_7" data-name="Group 7" transform="translate(31.822 29.912)">
      <g id="Group_4" data-name="Group 4" transform="translate(0.171 0.157)">
        <g id="Group_3" data-name="Group 3">
          <path id="Path_6" data-name="Path 6" class="cls-2" d="M41.007,15.265a12.015,12.015,0,0,0-3.294-7.974,25.032,25.032,0,0,0-7.607-5.3,20.757,20.757,0,0,0-7.26-1.81A38.253,38.253,0,0,0,14.88.232a17.2,17.2,0,0,0-5,1.463A7.851,7.851,0,0,0,6.275,4.559a13.844,13.844,0,0,0-4.188,5.852c0,.007,0,.007-.007.014s-.035.028-.049.042a.288.288,0,0,0-.09.3,27.818,27.818,0,0,0-1.81,7.627c-.52,5.214.451,10.949,3.835,15.1,4.056,4.965,11.226,5.818,17.245,5.18a.347.347,0,0,0,.222-.021l.215-.021c5.367-.645,11.379-2.455,14.922-6.8A13.322,13.322,0,0,0,38.511,28.5a26.354,26.354,0,0,0,1.151-4.251A35.53,35.53,0,0,0,41.007,15.265ZM39.4,10.828a.265.265,0,0,0-.1.215,10.632,10.632,0,0,1-1.415,4.5c-.7,1.428-1.546,2.767-2.378,4.119a25.265,25.265,0,0,1-3.294,4.23,12.5,12.5,0,0,1-4.244,3.134.007.007,0,0,0-.007.007c-.305-.215-.61-.437-.908-.666a20.44,20.44,0,0,1-3.952-4.16,19.94,19.94,0,0,0,7.586-7.135,21.893,21.893,0,0,0,3.578-9.929A15.141,15.141,0,0,1,39.4,10.828ZM33.477,4.587c.076.048.146.1.222.146a.3.3,0,0,0-.014.076,21.2,21.2,0,0,1-3.4,9.742,19.166,19.166,0,0,1-7.523,7.128c-.007,0-.007.007-.014.007-.159-.229-.312-.458-.465-.693a15.558,15.558,0,0,1-1.623-3.127c-.291-.8-.5-1.664.194-2.281.846-.756,1.817-1.352,2.663-2.1q.312-.281.6-.583a.368.368,0,0,0,.166-.173,11.655,11.655,0,0,0,1.595-2.288c.541-1.012,1.1-2,1.6-3a.288.288,0,0,0,.125-.25,15.488,15.488,0,0,0,1.6-4.9A25.855,25.855,0,0,1,33.477,4.587ZM9.409,2.618a16.3,16.3,0,0,1,3.814-1.463A30.546,30.546,0,0,1,23.7.877a19.645,19.645,0,0,1,4.923,1.186,13.8,13.8,0,0,1-1.4,4.625.246.246,0,0,0-.028.062C21.738,2.084,14.325,4.129,7.752,3.727A9.881,9.881,0,0,1,9.409,2.618ZM6.3,5.315a.305.305,0,0,0,.354-.18c.028-.055.049-.1.076-.159L6.969,4.8a.242.242,0,0,0,.083-.34l.139-.18a.342.342,0,0,0,.09.021c6.511.506,14.229-1.8,19.63,3-.631,1.248-1.317,2.5-2.046,3.675a8.7,8.7,0,0,1-.895,1.186C20.635,9.441,16.211,9.392,12.107,9.17a48.171,48.171,0,0,0-5.568-.055,9.938,9.938,0,0,0-3.522.707A12.94,12.94,0,0,1,6.3,5.315ZM.832,17.671A27.073,27.073,0,0,1,2.593,10.8c1.123-.895,2.85-1.005,4.216-1.1a45.1,45.1,0,0,1,5.388.083c3.932.215,8.147.257,11.365,2.829a13.507,13.507,0,0,1-1.22,1.061,10.657,10.657,0,0,0-2.351,1.955c-.007.007-.007.014-.014.021-6.254-.77-15.033-2.316-19.29,3.606C.714,18.725.763,18.191.832,17.671Zm3.71,15.553C1.511,29.695.492,24.82.638,20.2a.273.273,0,0,0,.236-.132,9.422,9.422,0,0,1,5.915-4.091c.257,5.02.77,10.526,3.64,14.818,2.378,3.543,6.31,5.3,9.895,7.357C14.63,38.654,8.334,37.648,4.542,33.224Zm18.9,4.514c-.68.125-1.38.236-2.094.319-3.564-2.129-7.6-3.772-10.144-7.2a18.763,18.763,0,0,1-2.885-7.01,46.124,46.124,0,0,1-.922-7.926c0-.021-.007-.042-.007-.062a22.435,22.435,0,0,1,5.734-.319.3.3,0,0,0-.028.27c1.463,4.368,1.8,9.181,4.93,12.807,3.113,3.606,7.926,4.8,11.822,7.3A32.7,32.7,0,0,1,23.437,37.738ZM30.5,35.61c-3.925-2.628-8.792-3.786-12.024-7.4-3.113-3.488-3.418-8.39-4.833-12.648,2.143.146,4.257.451,6.13.686a4.113,4.113,0,0,0,.263,1.671,14.436,14.436,0,0,0,1.546,3.106A23.141,23.141,0,0,0,25.794,26.1a22.181,22.181,0,0,0,4.791,3.19,24.033,24.033,0,0,0,5.533,2.129A15.337,15.337,0,0,1,30.5,35.61ZM39.8,20.861c-.305,1.5-.686,3-1.005,4.493a15.964,15.964,0,0,1-1.435,4.181,12.878,12.878,0,0,1-.846,1.366.539.539,0,0,0-.111-.048,22.852,22.852,0,0,1-5.069-1.879,24.4,24.4,0,0,1-2.76-1.546,13.7,13.7,0,0,0,4.042-3.079,25.744,25.744,0,0,0,3.4-4.341c.867-1.394,1.72-2.788,2.448-4.258a13.121,13.121,0,0,0,1.387-3.807C40.806,14.808,40.383,17.963,39.8,20.861Z"/>
        </g>
      </g>
      <g id="Group_6" data-name="Group 6">
        <g id="Group_5" data-name="Group 5">
          <path id="Path_7" data-name="Path 7" class="cls-2" d="M17.978,39.192a25.068,25.068,0,0,1-5.991-.679,14.452,14.452,0,0,1-7.981-4.75A17.494,17.494,0,0,1,.587,26.545a25.05,25.05,0,0,1-.458-8,27.933,27.933,0,0,1,1.8-7.627.467.467,0,0,1,.152-.409.1.1,0,0,1,.028-.021,13.8,13.8,0,0,1,4.2-5.873A7.843,7.843,0,0,1,9.976,1.707,17.3,17.3,0,0,1,15.031.23a38.37,38.37,0,0,1,8-.049,20.725,20.725,0,0,1,7.322,1.824,25.223,25.223,0,0,1,7.662,5.339,12.187,12.187,0,0,1,3.342,8.085h0a33.1,33.1,0,0,1-1.193,8.342c-.055.229-.1.458-.159.686-.062.27-.118.534-.18.8a21.419,21.419,0,0,1-.978,3.474,13.3,13.3,0,0,1-1.969,3.37c-3.779,4.639-10.262,6.3-15.033,6.865-.035.007-.069.007-.1.014s-.055.007-.076.007a.429.429,0,0,1-.277.028C20.224,39.13,19.087,39.192,17.978,39.192ZM18.893.334a29.754,29.754,0,0,0-3.814.229,17.017,17.017,0,0,0-4.951,1.449A7.417,7.417,0,0,0,6.606,4.807l-.021.028-.028.021a13.49,13.49,0,0,0-4.133,5.783l-.021.049-.028.021c-.007.007-.021.014-.028.028s-.014.014-.021.014a.118.118,0,0,0-.042.125l.014.055-.021.056a27.273,27.273,0,0,0-1.8,7.579,24.76,24.76,0,0,0,.451,7.891,17.168,17.168,0,0,0,3.349,7.08,14.093,14.093,0,0,0,7.794,4.632,27.462,27.462,0,0,0,9.3.485l.035-.007.035.007a.1.1,0,0,0,.09-.014l.028-.014.035-.007c.035-.007.076-.007.111-.014s.069-.007.1-.014c4.708-.562,11.1-2.191,14.811-6.74a12.844,12.844,0,0,0,1.914-3.287,20.386,20.386,0,0,0,.964-3.418c.062-.27.118-.541.18-.8.056-.229.1-.458.159-.686A32.8,32.8,0,0,0,41.026,15.4a11.828,11.828,0,0,0-3.245-7.856,24.859,24.859,0,0,0-7.558-5.263,20.359,20.359,0,0,0-7.2-1.789C21.479.4,20.134.334,18.893.334ZM17.943,38.6c-4.14,0-9.749-.9-13.362-5.11h0a15.768,15.768,0,0,1-3.176-6.171,23.5,23.5,0,0,1-.77-6.969l.007-.173H.816A.093.093,0,0,0,.9,20.124a9.532,9.532,0,0,1,6.012-4.16l.208-.056.014.208c.25,4.888.756,10.463,3.613,14.728,1.976,2.94,5.089,4.667,8.1,6.331.569.319,1.165.645,1.733.971l.478.277-.548.049A23.7,23.7,0,0,1,17.943,38.6ZM.976,20.505a23.113,23.113,0,0,0,.763,6.733,15.521,15.521,0,0,0,3.106,6.039h0c4.133,4.819,10.99,5.194,15.068,4.916-.416-.236-.832-.465-1.241-.693-3.051-1.685-6.2-3.432-8.224-6.442-2.871-4.278-3.4-9.8-3.661-14.693a9.156,9.156,0,0,0-5.6,3.959A.436.436,0,0,1,.976,20.505Zm20.5,17.89-.048-.028c-.784-.472-1.616-.922-2.413-1.366-2.843-1.567-5.783-3.183-7.78-5.887a18.765,18.765,0,0,1-2.919-7.073,47.135,47.135,0,0,1-.929-7.96.063.063,0,0,0-.007-.035l-.042-.173.173-.035a22.649,22.649,0,0,1,5.776-.326l.291.014h0l.243.014c1.7.118,3.342.326,4.93.534.409.055.818.1,1.207.153l.173.021-.021.173a4.175,4.175,0,0,0,.257,1.595,14.587,14.587,0,0,0,1.526,3.072,22.837,22.837,0,0,0,4.181,5.041,21.88,21.88,0,0,0,4.757,3.162,23.719,23.719,0,0,0,5.492,2.115l.27.062-.173.215a15.417,15.417,0,0,1-5.679,4.244l-.083.035-.083-.055a38.119,38.119,0,0,0-4.618-2.51c-2.649-1.29-5.388-2.621-7.44-4.916-2.247-2.517-3.058-5.783-3.835-8.938-.312-1.255-.631-2.552-1.033-3.772l-.076-.229-.139.236a.159.159,0,0,0-.014.125c.423,1.255.749,2.566,1.075,3.828.79,3.127,1.609,6.358,3.828,8.924,2,2.316,4.764,3.654,7.44,4.944a42.144,42.144,0,0,1,4.348,2.316l.277.18-.305.125a31.264,31.264,0,0,1-6.435,1.844h0c-.693.132-1.4.236-2.108.319ZM7.729,16.144a46.693,46.693,0,0,0,.915,7.815A18.444,18.444,0,0,0,11.5,30.906c1.955,2.642,4.861,4.244,7.669,5.79.784.43,1.595.881,2.371,1.338.68-.083,1.359-.187,2.025-.312h0a31.519,31.519,0,0,0,6.053-1.7A44.617,44.617,0,0,0,25.591,33.9c-2.7-1.311-5.506-2.663-7.551-5.034-2.267-2.621-3.092-5.894-3.9-9.063-.319-1.262-.652-2.559-1.068-3.8a.465.465,0,0,1-.028-.166A22.581,22.581,0,0,0,7.729,16.144Zm6.324-.236c.375,1.158.673,2.371.964,3.55.77,3.12,1.567,6.338,3.758,8.792,2,2.247,4.715,3.564,7.336,4.84a40.063,40.063,0,0,1,4.576,2.482,15.207,15.207,0,0,0,5.291-3.89,24.276,24.276,0,0,1-5.3-2.08,22.525,22.525,0,0,1-4.826-3.21,23.32,23.32,0,0,1-4.244-5.11,14.483,14.483,0,0,1-1.56-3.148,4.684,4.684,0,0,1-.284-1.574c-.34-.042-.686-.09-1.047-.132C17.2,16.22,15.655,16.019,14.053,15.908ZM36.72,31.295l-.139-.09a.079.079,0,0,0-.056-.021,22.894,22.894,0,0,1-5.11-1.893,24.385,24.385,0,0,1-2.781-1.553l-.263-.173.291-.132a13.589,13.589,0,0,0,3.987-3.044,25.923,25.923,0,0,0,3.377-4.313c.825-1.324,1.692-2.739,2.441-4.244a12.958,12.958,0,0,0,1.373-3.758l.1-.721.229.686c.978,2.912.555,6.053-.042,9.014h0c-.173.874-.381,1.747-.576,2.6-.146.624-.291,1.262-.43,1.9a15.967,15.967,0,0,1-1.456,4.223,12.453,12.453,0,0,1-.86,1.387Zm-7.628-3.682a25.07,25.07,0,0,0,2.482,1.366A22.534,22.534,0,0,0,36.6,30.844h.014a11.316,11.316,0,0,0,.756-1.234,15.623,15.623,0,0,0,1.421-4.133c.139-.638.284-1.283.43-1.9.194-.846.4-1.727.576-2.586h0a18.39,18.39,0,0,0,.25-8.168,15.448,15.448,0,0,1-1.269,3.162c-.763,1.519-1.629,2.947-2.462,4.271a25.985,25.985,0,0,1-3.425,4.368A14.379,14.379,0,0,1,29.093,27.613Zm-.978-.229-.083-.062c-.333-.229-.631-.451-.915-.673a20.3,20.3,0,0,1-3.987-4.2l-.118-.166.18-.09a19.563,19.563,0,0,0,7.516-7.073,21.617,21.617,0,0,0,3.55-9.853l.028-.305.25.18a15.247,15.247,0,0,1,5.187,5.762l.055.125-.111.083a.086.086,0,0,0-.028.076A10.86,10.86,0,0,1,38.2,15.769c-.617,1.255-1.359,2.468-2.08,3.633-.1.166-.2.333-.305.5A25.242,25.242,0,0,1,32.5,24.16a12.71,12.71,0,0,1-4.292,3.169Zm-4.583-4.965a19.76,19.76,0,0,0,3.8,3.959c.257.2.527.4.818.6a12.509,12.509,0,0,0,4.1-3.065,25.147,25.147,0,0,0,3.273-4.2c.1-.166.2-.333.305-.5.714-1.158,1.449-2.364,2.066-3.606a10.542,10.542,0,0,0,1.4-4.424.443.443,0,0,1,.062-.236A14.653,14.653,0,0,0,34.578,5.6,22.092,22.092,0,0,1,31,15.312,19.934,19.934,0,0,1,23.532,22.419Zm-.666-.34-.09-.132c-.16-.236-.319-.472-.465-.693a15.62,15.62,0,0,1-1.643-3.162c-.319-.881-.513-1.8.243-2.469a16.957,16.957,0,0,1,1.38-1.089c.43-.319.881-.652,1.29-1.012.194-.173.388-.361.589-.576l.021-.028.035-.014a.18.18,0,0,0,.076-.083l.014-.028.021-.021A11.322,11.322,0,0,0,25.91,10.52c.159-.3.319-.6.485-.888.374-.686.763-1.4,1.116-2.108l.021-.035.035-.028a.13.13,0,0,0,.056-.09L27.6,7.324l.021-.049a15.209,15.209,0,0,0,1.588-4.847l.028-.222.208.083a25.58,25.58,0,0,1,4.292,2.3h0c.076.049.146.1.222.153l.111.076-.042.125a.076.076,0,0,0-.007.035A21.469,21.469,0,0,1,30.6,14.806,19.579,19.579,0,0,1,23.019,22C23.012,22,23.012,22,23,22ZM23.012,22ZM24.4,13.211c-.208.215-.4.4-.6.575-.423.367-.874.707-1.311,1.033-.458.34-.929.686-1.352,1.068-.569.513-.471,1.207-.146,2.094A15.674,15.674,0,0,0,22.6,21.074c.118.18.243.374.375.562a19.239,19.239,0,0,0,7.336-7.01,21.171,21.171,0,0,0,3.37-9.652l-.125-.083a25.109,25.109,0,0,0-4.022-2.184A15.628,15.628,0,0,1,27.97,7.393a.433.433,0,0,1-.159.319c-.354.7-.735,1.4-1.11,2.087-.159.291-.319.589-.478.888a11.59,11.59,0,0,1-1.6,2.3A.679.679,0,0,1,24.4,13.211ZM.643,20.013l.042-.6c.035-.541.083-1.075.153-1.6a27.157,27.157,0,0,1,1.775-6.913l.014-.042.035-.028c1.165-.929,2.9-1.04,4.292-1.13h.014a46,46,0,0,1,5.36.076h.049l.8.042c3.744.194,7.62.388,10.664,2.822l.153.125-.139.139a13.684,13.684,0,0,1-1.241,1.075c-.208.16-.43.312-.659.478a6.435,6.435,0,0,0-1.65,1.442.024.024,0,0,1-.007.014l-.062.09-.1-.014c-.388-.049-.79-.1-1.2-.153a43.053,43.053,0,0,0-9.8-.492C5.4,15.735,2.744,17.1,1,19.528ZM1,17.829l.173.021c-.042.326-.076.666-.1,1,1.8-2.219,4.424-3.481,8.009-3.862a43.7,43.7,0,0,1,9.888.5c.375.049.735.1,1.1.139a7.019,7.019,0,0,1,1.685-1.463c.229-.16.444-.312.652-.465.381-.291.742-.6,1.068-.908-2.933-2.254-6.684-2.441-10.311-2.628l-.8-.042h-.049a43.84,43.84,0,0,0-5.318-.076H6.98a7.568,7.568,0,0,0-4.063,1.026A26.843,26.843,0,0,0,1.184,17.85Zm23.16-5.263-.125-.1c-3.079-2.517-7.093-2.725-10.97-2.919l-.8-.042a47.233,47.233,0,0,0-5.547-.055,9.633,9.633,0,0,0-3.453.693l-.437.2.2-.437A12.989,12.989,0,0,1,6.37,5.341l.062-.056.083.014a.143.143,0,0,0,.166-.076l.083-.166.021-.035.083-.062c.063-.049.125-.09.194-.139.042-.028.062-.055.028-.111l-.055-.1.069-.09q.062-.083.146-.187l.076-.1.118.042a.088.088,0,0,0,.042.007,50.607,50.607,0,0,0,5.707-.021c4.965-.208,10.1-.423,14.021,3.065l.1.09-.062.118c-.68,1.345-1.373,2.586-2.052,3.689a8.792,8.792,0,0,1-.915,1.207ZM8.756,9.037c1.234,0,2.441.055,3.536.118l.8.042c3.883.2,7.891.4,11.039,2.891a8.3,8.3,0,0,0,.77-1.033c.659-1.061,1.324-2.254,1.976-3.543C23.067,4.21,18.047,4.419,13.2,4.627a48.229,48.229,0,0,1-5.748.021H7.445l-.014.014a.423.423,0,0,1-.18.458c-.062.042-.125.09-.18.132l-.021.014c-.021.042-.042.076-.056.111a.475.475,0,0,1-.458.284A12.367,12.367,0,0,0,3.548,9.647,11.268,11.268,0,0,1,6.7,9.106C7.383,9.057,8.069,9.037,8.756,9.037ZM27.429,7.185l-.173-.146C23.3,3.663,18.227,3.85,13.318,4.03c-1.789.069-3.64.132-5.4.028L7.494,4.03l.319-.277A9.545,9.545,0,0,1,9.5,2.616h0a16.659,16.659,0,0,1,3.848-1.477A30.533,30.533,0,0,1,23.886.854a19.836,19.836,0,0,1,4.972,1.2l.125.049-.014.132a13.926,13.926,0,0,1-1.414,4.68.248.248,0,0,0-.028.062ZM16.688,3.607c3.793,0,7.516.471,10.623,3.03a13.562,13.562,0,0,0,1.3-4.3,19.6,19.6,0,0,0-4.757-1.13,29.976,29.976,0,0,0-10.415.277A16.186,16.186,0,0,0,9.664,2.928h0a11.308,11.308,0,0,0-1.283.811c1.609.069,3.287.007,4.916-.049C14.428,3.649,15.565,3.607,16.688,3.607Z"/>
        </g>
      </g>
    </g>
    <g id="Group_8" data-name="Group 8" transform="translate(5.925 6.034)">
      <path id="Path_8" data-name="Path 8" class="cls-2" d="M8.782,11.864c-5.492,1.872-6.934-.27-7.4-1.65l-.055-.153L4.746,8.89c.257.617.978,1.519,3.675.6l.194-.069c2.76-.943,2.878-1.595,2.69-2.163-.208-.6-.659-.874-3.106-.118l-1.817.576C2.43,8.938.78,8.023.225,6.386L.184,6.262C-.35,4.7.024,2.746,4.795,1.117L5.766.784c4.958-1.692,6.67-.347,7.211,1.227l.048.139-3.4,1.165c-.208-.367-.707-1.158-3.453-.222l-.222.076C3.415,4.036,3.38,4.549,3.54,5s.576.763,2.732.076L8.04,4.5c3.966-1.276,5.88-.86,6.594,1.22l.069.194c.589,1.733.326,3.8-4.937,5.6Z" transform="translate(25.455 1.538)"/>
      <path id="Path_9" data-name="Path 9" class="cls-2" d="M8.981.137c6.927.652,7.419,4.209,7.232,6.178l-.042.444c-.18,1.942-1.317,5.436-8.258,4.784l-.638-.062C.3,10.829-.151,7.182.029,5.247L.071,4.8C.258,2.834,1.368-.57,8.343.082ZM12.587,6.08C12.7,4.818,12.129,3.126,8.4,2.772,4.606,2.418,3.787,3.985,3.67,5.241l-.014.18C3.538,6.683,4.1,8.479,7.83,8.832c3.7.347,4.618-1.269,4.736-2.545Z" transform="translate(41.585 0)"/>
      <path id="Path_10" data-name="Path 10" class="cls-2" d="M4.286,11.477c-5.5-3.3-4.507-6.885-3.495-8.57l.222-.368C2.046.819,4.57-1.711,10.18,1.658l.52.312c5.5,3.3,4.777,6.442,4.112,7.551l-.083.139L11.58,7.767c.076-.3.492-1.858-2.517-3.661C6.221,2.4,4.806,3.288,4.092,4.474L4,4.626C3.329,5.749,3.19,7.677,5.964,9.341c3.072,1.844,4.257.562,4.466.388l3.148,1.893-.083.139c-.721,1.2-3.252,3.287-8.675.035Z" transform="translate(59.108 4.643)"/>
      <path id="Path_11" data-name="Path 11" class="cls-2" d="M1.874,10.462c-3.6-5.3-1.193-8.141.43-9.243L2.657.977c1.664-1.13,5.013-2.358,8.688,3.051l.34.506c3.6,5.3,1.623,7.849.555,8.577l-.138.09-2.066-3.037c.194-.243,1.227-1.477-.749-4.382C7.421,3.036,5.764,3.244,4.62,4.021l-.146.1c-1.082.735-2.018,2.434-.2,5.1,2.011,2.968,3.627,2.3,3.89,2.233l2.067,3.037-.139.09c-1.158.784-4.334,1.616-7.884-3.62Z" transform="translate(72.413 15.781)"/>
      <path id="Path_12" data-name="Path 12" class="cls-2" d="M13.154,11.42l-2.462.5L9.056,3.841l-1.6.326,1.6,7.884-2.475.506-1.6-7.884L3.2,5.034l1.671,8.224-2.524.513L0,2.2,10.845,0Z" transform="translate(78.739 31.056)"/>
      <path id="Path_13" data-name="Path 13" class="cls-2" d="M1.886,3.412,2.51,0,13.4,1.99l-1.6,8.779c-.666,3.626-2.122,4.493-3.689,4.209l-.173-.035a2.589,2.589,0,0,1-2.018-2.455A2.6,2.6,0,0,1,3.037,14.1l-1.595-.291a2.613,2.613,0,0,0-1.366-.042L0,13.75l.631-3.467a1.052,1.052,0,0,1,.714-.035l1.255.229c1.331.243,2.025-.236,2.33-1.921l.811-4.445ZM8.161,4.563,7.218,9.728c-.18.978.215,1.463.818,1.574H8.05c.568.1,1.123-.187,1.3-1.186L10.3,4.951Z" transform="translate(78.718 45.43)"/>
      <path id="Path_14" data-name="Path 14" class="cls-2" d="M4.931,5.027,2.116,2.642,4.356,0,12.8,7.149,7.434,13.48C4.855,16.524,2.893,16.4,1.353,15.1L1.242,15c-1.512-1.276-1.99-3.266.568-6.282Zm1.9,1.6-3.086,3.64c-.7.832-.735,1.484-.153,1.976l.035.028c.575.492,1.213.381,1.934-.465l3.086-3.64Z" transform="translate(72.171 63.299)"/>
      <path id="Path_15" data-name="Path 15" class="cls-2" d="M5.152,7.26,11,3.98l-.118-2.253L13.958,0l.534,12.391-3.918,2.2L0,7.828,3.259,6Zm6.234,4.126L11.15,6.761,7.489,8.813Z" transform="translate(55.898 72.126)"/>
      <path id="Path_16" data-name="Path 16" class="cls-2" d="M0,.707,3.391,0,5.644,10.838l-3.391.707Z" transform="translate(51.308 79.379)"/>
      <path id="Path_17" data-name="Path 17" class="cls-2" d="M10.429,12.114,4.14,4.445,3.4,11.365,0,11,1.172,0l3.4.361,6.691,8.085.777-7.295,3.4.361-1.172,11Z" transform="translate(33.932 79.517)"/>
      <path id="Path_18" data-name="Path 18" class="cls-2" d="M8.563,9.125l4.258,2.129L11.649,13.6,0,7.766,1.172,5.422,5.443,7.558,9.229,0l3.127,1.567Z" transform="translate(19.668 76.023)"/>
      <path id="Path_19" data-name="Path 19" class="cls-2" d="M0,7.96,1.768,6.178l5.845,5.8,1.151-1.158L3.058,5.152l1.782-1.8,5.707,5.672,1.276-1.29L5.873,1.824,7.69,0l8.376,8.321L8.279,16.184Z" transform="translate(9.517 66.121)"/>
      <path id="Path_20" data-name="Path 20" class="cls-2" d="M13.037,9.742l1.3,3.21L4.085,17.12.729,8.848c-1.387-3.418-.624-4.93.853-5.533l.166-.069a2.579,2.579,0,0,1,3.016.992,2.587,2.587,0,0,1,1.567-2.9l1.5-.61a2.677,2.677,0,0,0,1.179-.7L9.085,0l1.324,3.266c-.083.146-.215.263-.589.416L8.634,4.16C7.379,4.667,7.053,5.443,7.7,7.031l1.7,4.188Zm-5.908,2.4L5.153,7.274c-.374-.922-.964-1.116-1.532-.888l-.014.007c-.541.215-.846.763-.465,1.7L5.118,12.96Z" transform="translate(2.027 52.17)"/>
      <path id="Path_21" data-name="Path 21" class="cls-2" d="M11.472,7.636c-.18,5.8-2.7,6.386-4.16,6.345l-.166-.007.111-3.613c.673-.021,1.768-.375,1.858-3.231l.007-.208c.09-2.912-.478-3.259-1.075-3.28-.638-.021-1.054.312-1.207,2.864l-.1,1.9c-.25,4.126-1.685,5.346-3.412,5.3L3.193,13.7C1.543,13.648-.149,12.608.01,7.567L.045,6.541C.212,1.306,2.077.175,3.741.231l.146.007-.111,3.6c-.416.062-1.331.257-1.421,3.155l-.007.236c-.083,2.676.388,2.884.86,2.9S4.122,9.855,4.24,7.6l.09-1.858C4.538,1.583,5.6-.067,7.8,0l.208.007c1.831.056,3.675,1.04,3.495,6.6Z" transform="translate(0 37.606)"/>
    </g>
  </g>
</svg>
